<?xml version="1.0" encoding="utf-8"?>
<!-- Generator: Adobe Illustrator 15.1.0, SVG Export Plug-In . SVG Version: 6.00 Build 0)  -->
<!DOCTYPE svg PUBLIC "-//W3C//DTD SVG 1.1//EN" "http://www.w3.org/Graphics/SVG/1.1/DTD/svg11.dtd">
<svg version="1.1" xmlns="http://www.w3.org/2000/svg" xmlns:xlink="http://www.w3.org/1999/xlink" x="0px" y="0px"
	 width="1451.34px" height="1451.34px" viewBox="0 0 1451.34 1451.34" enable-background="new 0 0 1451.34 1451.34"
	 xml:space="preserve">
<g id="Layer_1">
	<rect y="557" display="none" fill="#FFFFFF" stroke="#1D1D1B" stroke-miterlimit="10" width="1451.339" height="387.805"/>
	<text transform="matrix(1 0 0 1 45.1089 879.1953)" display="none" font-family="'Palatino-Bold'" font-size="400">McSAS</text>
</g>
<g id="Layer_3">
</g>
<g id="Layer_2">
	<g>
		<defs>
			<rect id="SVGID_1_" width="1451.34" height="1451.34"/>
		</defs>
		<clipPath id="SVGID_2_">
			<use xlink:href="#SVGID_1_"  overflow="visible"/>
		</clipPath>
		<g clip-path="url(#SVGID_2_)">
			<radialGradient id="SVGID_3_" cx="323.0488" cy="1128.291" r="918.6802" gradientUnits="userSpaceOnUse">
				<stop  offset="0" style="stop-color:#29235C"/>
				<stop  offset="0.2473" style="stop-color:#29265F"/>
				<stop  offset="0.4475" style="stop-color:#272E69"/>
				<stop  offset="0.6313" style="stop-color:#253D7A"/>
				<stop  offset="0.8053" style="stop-color:#225192"/>
				<stop  offset="0.9708" style="stop-color:#1E6BB1"/>
				<stop  offset="1" style="stop-color:#1D70B7"/>
			</radialGradient>
			<circle fill="url(#SVGID_3_)" cx="323.049" cy="1128.292" r="918.68"/>
			<circle fill="none" stroke="#1D1D1B" stroke-width="3" stroke-miterlimit="10" cx="323.049" cy="1128.292" r="1110.181"/>
			<g>
				<defs>
					<path id="SVGID_4_" d="M323.049,18.109c-613.138,0-1110.182,497.045-1110.182,1110.183
						c0,613.136,497.044,1110.181,1110.182,1110.181c613.136,0,1110.181-497.045,1110.181-1110.181
						C1433.23,515.155,936.186,18.109,323.049,18.109z"/>
				</defs>
				<clipPath id="SVGID_5_">
					<use xlink:href="#SVGID_4_"  overflow="visible"/>
				</clipPath>
				<use xlink:href="#SVGID_4_"  overflow="visible" fill="none" stroke="#35A8E0" stroke-width="14" stroke-miterlimit="10"/>
			</g>
			<circle display="none" fill="none" stroke="#1D1D1B" stroke-miterlimit="10" cx="323.049" cy="1128.291" r="1013.386"/>
		</g>
		<g clip-path="url(#SVGID_2_)">
			<text transform="matrix(1 0 0 1 17.9824 867.3594)"><tspan x="0" y="0" fill="#FFFFFF" font-family="'HelveticaNeue-Bold'" font-size="550">Mc</tspan><tspan x="0" y="508.745" fill="#FFFFFF" font-family="'HelveticaNeue-Bold'" font-size="550">SAS</tspan></text>
		</g>
		<circle clip-path="url(#SVGID_2_)" fill="#1D70B7" cx="171" cy="126" r="73.481"/>
		<circle clip-path="url(#SVGID_2_)" fill="#1D70B7" cx="1083.994" cy="458.863" r="73.481"/>
		<circle clip-path="url(#SVGID_2_)" fill="#1D70B7" cx="660.273" cy="172.736" r="73.481"/>
		<circle clip-path="url(#SVGID_2_)" fill="#1D70B7" cx="491.586" cy="129.868" r="73.481"/>
		<circle clip-path="url(#SVGID_2_)" fill="#1D70B7" cx="1312.96" cy="913.479" r="73.481"/>
		<circle clip-path="url(#SVGID_2_)" fill="#1D70B7" cx="1327.597" cy="1256.703" r="73.48"/>
		<circle clip-path="url(#SVGID_2_)" fill="#1D70B7" cx="1335.509" cy="1084.873" r="73.481"/>
		<circle clip-path="url(#SVGID_2_)" fill="#1D70B7" cx="1292.158" cy="1423.538" r="73.481"/>
	</g>
	<text transform="matrix(1 0 0 1 996.2295 251.353)" font-family="'HelveticaNeue-Bold'" font-size="300">1.0</text>
	<g>
		<defs>
			<rect id="SVGID_6_" x="1844" width="1451.34" height="1451.34"/>
		</defs>
		<clipPath id="SVGID_7_">
			<use xlink:href="#SVGID_6_"  overflow="visible"/>
		</clipPath>
		<g clip-path="url(#SVGID_7_)">
			<radialGradient id="SVGID_8_" cx="2167.0488" cy="1128.291" r="918.6802" gradientUnits="userSpaceOnUse">
				<stop  offset="0" style="stop-color:#29235C"/>
				<stop  offset="0.2473" style="stop-color:#29265F"/>
				<stop  offset="0.4475" style="stop-color:#272E69"/>
				<stop  offset="0.6313" style="stop-color:#253D7A"/>
				<stop  offset="0.8053" style="stop-color:#225192"/>
				<stop  offset="0.9708" style="stop-color:#1E6BB1"/>
				<stop  offset="1" style="stop-color:#1D70B7"/>
			</radialGradient>
			<circle fill="url(#SVGID_8_)" cx="2167.049" cy="1128.292" r="918.68"/>
			<circle fill="none" stroke="#1D1D1B" stroke-width="3" stroke-miterlimit="10" cx="2167.049" cy="1128.292" r="1110.182"/>
			<g>
				<defs>
					<path id="SVGID_9_" d="M2167.049,18.109c-613.137,0-1110.182,497.045-1110.182,1110.183
						c0,613.136,497.045,1110.181,1110.182,1110.181S3277.23,1741.428,3277.23,1128.292
						C3277.23,515.155,2780.186,18.109,2167.049,18.109z"/>
				</defs>
				<clipPath id="SVGID_10_">
					<use xlink:href="#SVGID_9_"  overflow="visible"/>
				</clipPath>
				<use xlink:href="#SVGID_9_"  overflow="visible" fill="none" stroke="#35A8E0" stroke-width="14" stroke-miterlimit="10"/>
			</g>
			<circle display="none" fill="none" stroke="#1D1D1B" stroke-miterlimit="10" cx="2167.048" cy="1128.291" r="1013.386"/>
		</g>
		<g clip-path="url(#SVGID_7_)">
			<text transform="matrix(1 0 0 1 1861.9824 867.3594)"><tspan x="0" y="0" fill="#FFFFFF" font-family="'HelveticaNeue-Bold'" font-size="550">Mc</tspan><tspan x="0" y="508.745" fill="#FFFFFF" font-family="'HelveticaNeue-Bold'" font-size="550">SAS</tspan></text>
		</g>
		<circle clip-path="url(#SVGID_7_)" fill="#1D70B7" cx="2015" cy="126" r="73.48"/>
		<circle clip-path="url(#SVGID_7_)" fill="#1D70B7" cx="2927.994" cy="458.863" r="73.481"/>
		<circle clip-path="url(#SVGID_7_)" fill="#1D70B7" cx="2504.273" cy="172.736" r="73.481"/>
		<circle clip-path="url(#SVGID_7_)" fill="#1D70B7" cx="2335.585" cy="129.868" r="73.481"/>
		<circle clip-path="url(#SVGID_7_)" fill="#1D70B7" cx="3156.96" cy="913.479" r="73.481"/>
		<circle clip-path="url(#SVGID_7_)" fill="#1D70B7" cx="3171.597" cy="1256.703" r="73.48"/>
		<circle clip-path="url(#SVGID_7_)" fill="#1D70B7" cx="3179.509" cy="1084.873" r="73.481"/>
		<circle clip-path="url(#SVGID_7_)" fill="#1D70B7" cx="3136.158" cy="1423.538" r="73.481"/>
	</g>
</g>
</svg>
